<svg xmlns="http://www.w3.org/2000/svg" viewBox="3009.314 113.305 157.354 151.897" width="157.354" height="151.897"><defs><style>.ccls-1{fill:#fcc122}.ccls-2{fill:#fff}.ccls-3{filter:url(#cRectangle_20)}</style><filter id="cRectangle_20" x="3009.314" y="113.305" width="157.354" height="151.897" filterUnits="userSpaceOnUse"><feOffset dy="3"/><feGaussianBlur stdDeviation="3" result="blur"/><feFlood flood-color="#22272e" flood-opacity=".161"/><feComposite operator="in" in2="blur"/><feComposite in="SourceGraphic"/></filter></defs><g id="cGroup_41" data-name="Group 41" transform="translate(3024.314 125.323)"><g class="ccls-3" transform="translate(-3024.31 -125.32)"><path id="cRectangle_20-2" data-name="Rectangle 20" class="ccls-1" transform="translate(3018.31 119.3)" d="M0 0h139.354v133.897H0z"/></g><g id="cGroup_40" data-name="Group 40" transform="translate(21.085 50.91)"><path id="cPath_39" data-name="Path 39" class="ccls-2" d="M90.319 111.458a1.626 1.626 0 0 0 .157 2.6 15.154 15.154 0 0 0 3.358 1.146 9.339 9.339 0 0 1 4.093 1.927 4.779 4.779 0 0 1 1.469 3.8 4.855 4.855 0 0 1-1.889 4.01 7.453 7.453 0 0 1-4.932 1.562 11.644 11.644 0 0 1-7.975-3.229l2.466-3.021c1.994 1.771 3.883 2.6 5.562 2.6a2.907 2.907 0 0 0 1.784-.469 1.576 1.576 0 0 0 .63-1.3 1.5 1.5 0 0 0-.682-1.3 8.861 8.861 0 0 0-2.728-.99 12.922 12.922 0 0 1-4.775-1.979 4.705 4.705 0 0 1-1.522-3.854 4.755 4.755 0 0 1 1.889-4.062A7.743 7.743 0 0 1 92 107.5a11.649 11.649 0 0 1 3.725.625 9.906 9.906 0 0 1 3.253 1.823l-2.1 3.021a8.408 8.408 0 0 0-4.985-1.823 1.535 1.535 0 0 0-1.574.312z" transform="translate(-62.143 -107.5)"/><path id="cRectangle_24" data-name="Rectangle 24" class="ccls-2" transform="translate(0 7.552)" d="M0 0h11.228v3.646H0z"/><path id="cPath_40" data-name="Path 40" class="ccls-2" d="M137.145 115.448h7.083v3.646h-7.083v3.75h9.287v3.646H133V108h13.432v3.646h-9.287z" transform="translate(-85.148 -107.74)"/><path id="cPath_41" data-name="Path 41" class="ccls-2" d="M191.028 118.8h-3.778V115h-3.673v3.8H179.8v3.646h3.778v3.75h3.673v-3.75h3.778z" transform="translate(-107.392 -111.094)"/></g></g></svg>